<svg width="94" height="66" viewBox="0 0 94 66" fill="none" xmlns="http://www.w3.org/2000/svg">
<rect x="5" y="5" width="88" height="60" fill="#EC3332" stroke="#EC3332" stroke-width="2"/>
<rect x="1" y="1" width="88" height="60" fill="white" stroke="#EC3332" stroke-width="2"/>
<path d="M20.5021 24V26.6H23.3021V38H26.5421V24H20.5021ZM38.9541 30.64C39.9941 30 40.5941 29.02 40.5941 27.76C40.5941 25.3 38.3941 23.76 35.1741 23.76C31.9941 23.76 29.7941 25.3 29.7941 27.76C29.7941 29.02 30.3741 30 31.4141 30.64C30.0741 31.32 29.2941 32.44 29.2941 33.94C29.2941 36.58 31.6341 38.24 35.1741 38.24C38.7341 38.24 41.0941 36.58 41.0941 33.94C41.0941 32.44 40.3141 31.32 38.9541 30.64ZM35.1741 26.14C36.4941 26.14 37.3741 26.8 37.3741 27.9C37.3741 28.96 36.5141 29.62 35.1741 29.62C33.8541 29.62 33.0141 28.96 33.0141 27.9C33.0141 26.8 33.8741 26.14 35.1741 26.14ZM35.1741 35.86C33.5741 35.86 32.5741 35.08 32.5741 33.84C32.5741 32.6 33.5741 31.84 35.1741 31.84C36.7941 31.84 37.8141 32.6 37.8141 33.84C37.8141 35.08 36.7941 35.86 35.1741 35.86ZM44.8173 30.98C45.8973 30.98 46.7573 30.16 46.7573 29.02C46.7573 27.86 45.8973 27.1 44.8173 27.1C43.7373 27.1 42.8773 27.86 42.8773 29.02C42.8773 30.16 43.7373 30.98 44.8173 30.98ZM44.8173 38.16C45.8973 38.16 46.7573 37.34 46.7573 36.2C46.7573 35.04 45.8973 34.28 44.8173 34.28C43.7373 34.28 42.8773 35.04 42.8773 36.2C42.8773 37.34 43.7373 38.16 44.8173 38.16ZM47.9716 24V26.6H50.7716V38H54.0116V24H47.9716ZM62.8437 38.24C66.3037 38.24 68.8437 35.62 68.8437 31C68.8437 26.38 66.3037 23.76 62.8437 23.76C59.4037 23.76 56.8437 26.38 56.8437 31C56.8437 35.62 59.4037 38.24 62.8437 38.24ZM62.8437 35.5C61.2437 35.5 60.1237 34.18 60.1237 31C60.1237 27.82 61.2437 26.5 62.8437 26.5C64.4637 26.5 65.5837 27.82 65.5837 31C65.5837 34.18 64.4637 35.5 62.8437 35.5Z" fill="#EC3332"/>
</svg>
