<svg width="94" height="66" viewBox="0 0 94 66" fill="none" xmlns="http://www.w3.org/2000/svg">
<rect x="5" y="5" width="88" height="60" fill="#EC3332" stroke="#EC3332" stroke-width="2"/>
<rect x="1" y="1" width="88" height="60" fill="white" stroke="#EC3332" stroke-width="2"/>
<path d="M18.5392 24V26.6H21.3392V38H24.5792V24H18.5392ZM36.9913 30.64C38.0313 30 38.6313 29.02 38.6313 27.76C38.6313 25.3 36.4313 23.76 33.2113 23.76C30.0313 23.76 27.8313 25.3 27.8313 27.76C27.8313 29.02 28.4113 30 29.4513 30.64C28.1113 31.32 27.3313 32.44 27.3313 33.94C27.3313 36.58 29.6713 38.24 33.2113 38.24C36.7713 38.24 39.1313 36.58 39.1313 33.94C39.1313 32.44 38.3513 31.32 36.9913 30.64ZM33.2113 26.14C34.5313 26.14 35.4113 26.8 35.4113 27.9C35.4113 28.96 34.5513 29.62 33.2113 29.62C31.8913 29.62 31.0513 28.96 31.0513 27.9C31.0513 26.8 31.9113 26.14 33.2113 26.14ZM33.2113 35.86C31.6113 35.86 30.6113 35.08 30.6113 33.84C30.6113 32.6 31.6113 31.84 33.2113 31.84C34.8313 31.84 35.8513 32.6 35.8513 33.84C35.8513 35.08 34.8313 35.86 33.2113 35.86ZM42.8544 30.98C43.9344 30.98 44.7944 30.16 44.7944 29.02C44.7944 27.86 43.9344 27.1 42.8544 27.1C41.7744 27.1 40.9144 27.86 40.9144 29.02C40.9144 30.16 41.7744 30.98 42.8544 30.98ZM42.8544 38.16C43.9344 38.16 44.7944 37.34 44.7944 36.2C44.7944 35.04 43.9344 34.28 42.8544 34.28C41.7744 34.28 40.9144 35.04 40.9144 36.2C40.9144 37.34 41.7744 38.16 42.8544 38.16ZM51.0888 35.36L54.3088 32.32C56.2688 30.5 56.6488 29.26 56.6488 27.9C56.6488 25.36 54.5688 23.76 51.4488 23.76C48.9288 23.76 46.9688 24.78 45.8888 26.36L48.2488 27.88C48.9288 26.94 49.9488 26.48 51.1488 26.48C52.6288 26.48 53.3888 27.12 53.3888 28.22C53.3888 28.9 53.1688 29.62 51.9288 30.8L46.5288 35.9V38H57.1088V35.36H51.0888ZM64.8066 38.24C68.2666 38.24 70.8066 35.62 70.8066 31C70.8066 26.38 68.2666 23.76 64.8066 23.76C61.3666 23.76 58.8066 26.38 58.8066 31C58.8066 35.62 61.3666 38.24 64.8066 38.24ZM64.8066 35.5C63.2066 35.5 62.0866 34.18 62.0866 31C62.0866 27.82 63.2066 26.5 64.8066 26.5C66.4266 26.5 67.5466 27.82 67.5466 31C67.5466 34.18 66.4266 35.5 64.8066 35.5Z" fill="#EC3332"/>
</svg>
