<svg width="94" height="66" viewBox="0 0 94 66" fill="none" xmlns="http://www.w3.org/2000/svg">
<rect x="5" y="5" width="88" height="60" fill="#EC3332" stroke="#EC3332" stroke-width="2"/>
<rect x="1" y="1" width="88" height="60" fill="white" stroke="#EC3332" stroke-width="2"/>
<path d="M18.5002 24V26.6H21.3002V38H24.5402V24H18.5002ZM36.9522 30.64C37.9922 30 38.5922 29.02 38.5922 27.76C38.5922 25.3 36.3922 23.76 33.1722 23.76C29.9922 23.76 27.7922 25.3 27.7922 27.76C27.7922 29.02 28.3722 30 29.4122 30.64C28.0722 31.32 27.2922 32.44 27.2922 33.94C27.2922 36.58 29.6322 38.24 33.1722 38.24C36.7322 38.24 39.0922 36.58 39.0922 33.94C39.0922 32.44 38.3122 31.32 36.9522 30.64ZM33.1722 26.14C34.4922 26.14 35.3722 26.8 35.3722 27.9C35.3722 28.96 34.5122 29.62 33.1722 29.62C31.8522 29.62 31.0122 28.96 31.0122 27.9C31.0122 26.8 31.8722 26.14 33.1722 26.14ZM33.1722 35.86C31.5722 35.86 30.5722 35.08 30.5722 33.84C30.5722 32.6 31.5722 31.84 33.1722 31.84C34.7922 31.84 35.8122 32.6 35.8122 33.84C35.8122 35.08 34.7922 35.86 33.1722 35.86ZM42.8153 30.98C43.8953 30.98 44.7553 30.16 44.7553 29.02C44.7553 27.86 43.8953 27.1 42.8153 27.1C41.7353 27.1 40.8753 27.86 40.8753 29.02C40.8753 30.16 41.7353 30.98 42.8153 30.98ZM42.8153 38.16C43.8953 38.16 44.7553 37.34 44.7553 36.2C44.7553 35.04 43.8953 34.28 42.8153 34.28C41.7353 34.28 40.8753 35.04 40.8753 36.2C40.8753 37.34 41.7353 38.16 42.8153 38.16ZM53.1497 29.7L56.3097 26.1V24H46.5097V26.6H52.4697L49.5897 29.86V32H51.0697C52.9097 32 53.6897 32.66 53.6897 33.72C53.6897 34.86 52.6897 35.52 51.0697 35.52C49.6097 35.52 48.1297 35.06 47.0697 34.26L45.8097 36.74C47.1697 37.7 49.1897 38.24 51.1497 38.24C55.1297 38.24 56.9497 36.08 56.9497 33.72C56.9497 31.66 55.6697 30.1 53.1497 29.7ZM64.8456 38.24C68.3056 38.24 70.8456 35.62 70.8456 31C70.8456 26.38 68.3056 23.76 64.8456 23.76C61.4056 23.76 58.8456 26.38 58.8456 31C58.8456 35.62 61.4056 38.24 64.8456 38.24ZM64.8456 35.5C63.2456 35.5 62.1256 34.18 62.1256 31C62.1256 27.82 63.2456 26.5 64.8456 26.5C66.4656 26.5 67.5856 27.82 67.5856 31C67.5856 34.18 66.4656 35.5 64.8456 35.5Z" fill="#EC3332"/>
</svg>
