<svg width="94" height="66" viewBox="0 0 94 66" fill="none" xmlns="http://www.w3.org/2000/svg">
<rect x="5" y="5" width="88" height="60" fill="#EC3332" stroke="#EC3332" stroke-width="2"/>
<rect x="1" y="1" width="88" height="60" fill="white" stroke="#EC3332" stroke-width="2"/>
<path d="M18.383 24V26.6H21.183V38H24.423V24H18.383ZM36.835 30.64C37.875 30 38.475 29.02 38.475 27.76C38.475 25.3 36.275 23.76 33.055 23.76C29.875 23.76 27.675 25.3 27.675 27.76C27.675 29.02 28.255 30 29.295 30.64C27.955 31.32 27.175 32.44 27.175 33.94C27.175 36.58 29.515 38.24 33.055 38.24C36.615 38.24 38.975 36.58 38.975 33.94C38.975 32.44 38.195 31.32 36.835 30.64ZM33.055 26.14C34.375 26.14 35.255 26.8 35.255 27.9C35.255 28.96 34.395 29.62 33.055 29.62C31.735 29.62 30.895 28.96 30.895 27.9C30.895 26.8 31.755 26.14 33.055 26.14ZM33.055 35.86C31.455 35.86 30.455 35.08 30.455 33.84C30.455 32.6 31.455 31.84 33.055 31.84C34.675 31.84 35.695 32.6 35.695 33.84C35.695 35.08 34.675 35.86 33.055 35.86ZM42.6981 30.98C43.7781 30.98 44.6381 30.16 44.6381 29.02C44.6381 27.86 43.7781 27.1 42.6981 27.1C41.6181 27.1 40.7581 27.86 40.7581 29.02C40.7581 30.16 41.6181 30.98 42.6981 30.98ZM42.6981 38.16C43.7781 38.16 44.6381 37.34 44.6381 36.2C44.6381 35.04 43.7781 34.28 42.6981 34.28C41.6181 34.28 40.7581 35.04 40.7581 36.2C40.7581 37.34 41.6181 38.16 42.6981 38.16ZM59.3125 32.42H57.0325V29.8H53.9725V32.42H50.2125L56.3325 24H52.9325L46.3325 32.88V35.06H53.8725V38H57.0325V35.06H59.3125V32.42ZM65.4425 29.26H64.3025L64.5225 26.6H70.3625V24H61.8225L61.1025 31.88H64.6825C67.2225 31.88 67.9425 32.6 67.9425 33.7C67.9425 34.84 66.9425 35.52 65.3225 35.52C63.8625 35.52 62.4025 35.06 61.3425 34.26L60.0625 36.74C61.4225 37.7 63.4625 38.24 65.4025 38.24C69.4025 38.24 71.2225 36.08 71.2225 33.6C71.2225 31.12 69.5825 29.26 65.4425 29.26Z" fill="#EC3332"/>
</svg>
