<svg width="94" height="66" viewBox="0 0 94 66" fill="none" xmlns="http://www.w3.org/2000/svg">
<rect x="5" y="5" width="88" height="60" fill="#EC3332" stroke="#EC3332" stroke-width="2"/>
<rect x="1" y="1" width="88" height="60" fill="white" stroke="#EC3332" stroke-width="2"/>
<path d="M18.3654 24V26.6H21.1654V38H24.4054V24H18.3654ZM32.1574 23.76C29.1974 23.76 26.8574 25.56 26.8574 28.42C26.8574 31.06 28.9774 32.78 31.6774 32.78C33.1374 32.78 34.3374 32.34 35.1574 31.52C35.0574 34.22 33.5374 35.6 31.2174 35.6C30.2574 35.6 29.3574 35.42 28.5974 34.9L27.3974 37.28C28.3774 37.9 29.7974 38.24 31.2774 38.24C35.5174 38.24 38.4174 35.54 38.4174 30.7C38.4174 26.18 36.0374 23.76 32.1574 23.76ZM32.3974 30.36C30.9574 30.36 30.0174 29.54 30.0174 28.26C30.0174 26.98 30.9774 26.18 32.3574 26.18C33.8974 26.18 34.7974 27.06 34.7974 28.26C34.7974 29.48 33.8174 30.36 32.3974 30.36ZM42.2118 30.98C43.2918 30.98 44.1518 30.16 44.1518 29.02C44.1518 27.86 43.2918 27.1 42.2118 27.1C41.1318 27.1 40.2718 27.86 40.2718 29.02C40.2718 30.16 41.1318 30.98 42.2118 30.98ZM42.2118 38.16C43.2918 38.16 44.1518 37.34 44.1518 36.2C44.1518 35.04 43.2918 34.28 42.2118 34.28C41.1318 34.28 40.2718 35.04 40.2718 36.2C40.2718 37.34 41.1318 38.16 42.2118 38.16ZM52.0062 38.24C55.4662 38.24 58.0062 35.62 58.0062 31C58.0062 26.38 55.4662 23.76 52.0062 23.76C48.5662 23.76 46.0062 26.38 46.0062 31C46.0062 35.62 48.5662 38.24 52.0062 38.24ZM52.0062 35.5C50.4062 35.5 49.2862 34.18 49.2862 31C49.2862 27.82 50.4062 26.5 52.0062 26.5C53.6262 26.5 54.7462 27.82 54.7462 31C54.7462 34.18 53.6262 35.5 52.0062 35.5ZM65.9804 38.24C69.4404 38.24 71.9804 35.62 71.9804 31C71.9804 26.38 69.4404 23.76 65.9804 23.76C62.5404 23.76 59.9804 26.38 59.9804 31C59.9804 35.62 62.5404 38.24 65.9804 38.24ZM65.9804 35.5C64.3804 35.5 63.2604 34.18 63.2604 31C63.2604 27.82 64.3804 26.5 65.9804 26.5C67.6004 26.5 68.7204 27.82 68.7204 31C68.7204 34.18 67.6004 35.5 65.9804 35.5Z" fill="#EC3332"/>
</svg>
