<svg width="94" height="66" viewBox="0 0 94 66" fill="none" xmlns="http://www.w3.org/2000/svg">
<rect x="5" y="5" width="88" height="60" fill="#EC3332" stroke="#EC3332" stroke-width="2"/>
<rect x="1" y="1" width="88" height="60" fill="white" stroke="#EC3332" stroke-width="2"/>
<path d="M21.2365 24V26.6H24.0365V38H27.2765V24H21.2365ZM35.0285 23.76C32.0685 23.76 29.7285 25.56 29.7285 28.42C29.7285 31.06 31.8485 32.78 34.5485 32.78C36.0085 32.78 37.2085 32.34 38.0285 31.52C37.9285 34.22 36.4085 35.6 34.0885 35.6C33.1285 35.6 32.2285 35.42 31.4685 34.9L30.2685 37.28C31.2485 37.9 32.6685 38.24 34.1485 38.24C38.3885 38.24 41.2885 35.54 41.2885 30.7C41.2885 26.18 38.9085 23.76 35.0285 23.76ZM35.2685 30.36C33.8285 30.36 32.8885 29.54 32.8885 28.26C32.8885 26.98 33.8485 26.18 35.2285 26.18C36.7685 26.18 37.6685 27.06 37.6685 28.26C37.6685 29.48 36.6885 30.36 35.2685 30.36ZM45.0829 30.98C46.1629 30.98 47.0229 30.16 47.0229 29.02C47.0229 27.86 46.1629 27.1 45.0829 27.1C44.0029 27.1 43.1429 27.86 43.1429 29.02C43.1429 30.16 44.0029 30.98 45.0829 30.98ZM45.0829 38.16C46.1629 38.16 47.0229 37.34 47.0229 36.2C47.0229 35.04 46.1629 34.28 45.0829 34.28C44.0029 34.28 43.1429 35.04 43.1429 36.2C43.1429 37.34 44.0029 38.16 45.0829 38.16ZM48.2373 24V26.6H51.0373V38H54.2773V24H48.2373ZM63.1093 38.24C66.5693 38.24 69.1093 35.62 69.1093 31C69.1093 26.38 66.5693 23.76 63.1093 23.76C59.6693 23.76 57.1093 26.38 57.1093 31C57.1093 35.62 59.6693 38.24 63.1093 38.24ZM63.1093 35.5C61.5093 35.5 60.3893 34.18 60.3893 31C60.3893 27.82 61.5093 26.5 63.1093 26.5C64.7293 26.5 65.8493 27.82 65.8493 31C65.8493 34.18 64.7293 35.5 63.1093 35.5Z" fill="#EC3332"/>
</svg>
