<svg width="78" height="66" viewBox="0 0 78 66" fill="none" xmlns="http://www.w3.org/2000/svg">
<rect x="4.98004" y="4.91911" width="72.02" height="60.0809" fill="#EC3332" stroke="#EC3332" stroke-width="2"/>
<rect x="1" y="1" width="72.02" height="60.0809" fill="white" stroke="#EC3332" stroke-width="2"/>
<path fill-rule="evenodd" clip-rule="evenodd" d="M8.63855 5.91612H65.9271V12.4704H8.63855V5.91612ZM56.322 8.10112H59.05V10.8321H56.322V8.10112ZM63.9612 8.10112H61.2332V10.8321H63.9612V8.10112Z" fill="#EC3332"/>
<path d="M16.2963 23.2447L10.6485 27.8929L16.2963 32.8317" stroke="#EC3332" stroke-width="2"/>
<path d="M58.2865 23.2447L63.9343 27.8929L58.2865 32.8317" stroke="#EC3332" stroke-width="2"/>
<path d="M58.2865 43.6479L63.9343 48.4153L58.2865 53.4806" stroke="#EC3332" stroke-width="2"/>
<path d="M22.6426 22.2614V29.2673M22.6426 30.7422V33.0775M32.3277 28.7269H27.9254M39.6649 28.7269H35.2626M47.2956 28.7269H42.8933M54.7795 28.7269H50.3772M24.9905 38.8659H22.7893H20.5882M32.3277 38.8659H27.9254M39.9584 38.8659H35.5561M47.4423 38.8659C45.7231 38.8659 44.7592 38.8659 43.04 38.8659M54.7795 38.8659C53.0603 38.8659 52.0964 38.8659 50.3772 38.8659M24.9905 48.5641H22.7893H20.5882M32.3277 48.5641H27.9254M39.9584 48.5641H35.5561M47.4423 48.5641C45.7231 48.5641 44.7592 48.5641 43.04 48.5641M54.7795 48.5641C53.0603 48.5641 52.0964 48.5641 50.3772 48.5641M17.5066 38.8659H15.3054H13.251M17.5066 48.5641H15.3054H13.1042M61.97 38.8659C60.2507 38.8659 59.2869 38.8659 57.5676 38.8659" stroke="#EC3332" stroke-width="2"/>
</svg>
