<svg width="30" height="27" viewBox="0 0 30 27" fill="none" xmlns="http://www.w3.org/2000/svg">
<path d="M25.03 13.6013L18.9034 13.6013L18.9034 2.61565L29.5 2.61565L29.5 14.1013C29.5 20.2863 24.7864 25.305 18.9034 25.5754L18.9034 21.4325C22.619 21.1675 25.53 17.972 25.53 14.1013L25.53 13.6013L25.03 13.6013ZM8.96385 14.1013L8.96385 13.6013L8.46385 13.6013L2.33725 13.6013L2.33725 2.61565L12.9338 2.61565L12.9338 14.1013C12.9338 20.2863 8.21994 25.305 2.33725 25.5754L2.33725 21.4324C6.05283 21.1675 8.96385 17.972 8.96385 14.1013Z" stroke="#EC3332"/>
<path d="M23.1931 11.5725L17.0665 11.5725L17.0665 0.586838L27.6631 0.58684L27.6631 12.0725C27.6631 18.2575 22.9495 23.2762 17.0665 23.5466L17.0665 19.4036C20.7821 19.1387 23.6931 15.9432 23.6931 12.0725L23.6931 11.5725L23.1931 11.5725ZM7.12694 12.0725L7.12694 11.5725L6.62694 11.5725L0.500335 11.5725L0.500335 0.586837L11.0969 0.586838L11.0969 12.0725C11.0969 18.2575 6.38303 23.2762 0.500334 23.5466L0.500334 19.4036C4.21591 19.1387 7.12694 15.9432 7.12694 12.0725Z" fill="#EC3332" stroke="#EC3332"/>
</svg>
