<svg width="25" height="27" viewBox="0 0 25 27" fill="none" xmlns="http://www.w3.org/2000/svg">
<path fill-rule="evenodd" clip-rule="evenodd" d="M6.05182 2.55225L0.638062 7.96601L7.40529 14.7332L0.638099 21.5004L6.05186 26.9142L12.819 20.147L19.5862 26.9142L25 21.5004L18.2328 14.7332L25 7.96601L19.5863 2.55225L12.819 9.31947L6.05182 2.55225Z" fill="black"/>
<mask id="path-2-inside-1" fill="white">
<path fill-rule="evenodd" clip-rule="evenodd" d="M5.41376 0L0 5.41376L6.76722 12.181L3.7965e-05 18.9482L5.4138 24.3619L12.181 17.5947L18.9482 24.3619L24.3619 18.9482L17.5947 12.181L24.362 5.41376L18.9482 0L12.181 6.76722L5.41376 0Z"/>
</mask>
<path fill-rule="evenodd" clip-rule="evenodd" d="M5.41376 0L0 5.41376L6.76722 12.181L3.7965e-05 18.9482L5.4138 24.3619L12.181 17.5947L18.9482 24.3619L24.3619 18.9482L17.5947 12.181L24.362 5.41376L18.9482 0L12.181 6.76722L5.41376 0Z" fill="white"/>
<path d="M0 5.41376L-0.707107 4.70666L-1.41421 5.41376L-0.707107 6.12087L0 5.41376ZM5.41376 0L6.12087 -0.707107L5.41376 -1.41421L4.70666 -0.707107L5.41376 0ZM6.76722 12.181L7.47433 12.8881L8.18144 12.181L7.47433 11.4739L6.76722 12.181ZM3.7965e-05 18.9482L-0.707069 18.2411L-1.41418 18.9482L-0.707069 19.6553L3.7965e-05 18.9482ZM5.4138 24.3619L4.70669 25.069L5.4138 25.7762L6.12091 25.069L5.4138 24.3619ZM12.181 17.5947L12.8881 16.8876L12.181 16.1805L11.4739 16.8876L12.181 17.5947ZM18.9482 24.3619L18.2411 25.069L18.9482 25.7762L19.6553 25.069L18.9482 24.3619ZM24.3619 18.9482L25.069 19.6553L25.7761 18.9482L25.069 18.2411L24.3619 18.9482ZM17.5947 12.181L16.8876 11.4739L16.1805 12.181L16.8876 12.8881L17.5947 12.181ZM24.362 5.41376L25.0691 6.12087L25.7762 5.41376L25.0691 4.70666L24.362 5.41376ZM18.9482 0L19.6553 -0.707107L18.9482 -1.41421L18.2411 -0.707107L18.9482 0ZM12.181 6.76722L11.4739 7.47433L12.181 8.18144L12.8881 7.47433L12.181 6.76722ZM0.707107 6.12087L6.12087 0.707107L4.70666 -0.707107L-0.707107 4.70666L0.707107 6.12087ZM7.47433 11.4739L0.707107 4.70666L-0.707107 6.12087L6.06012 12.8881L7.47433 11.4739ZM6.06012 11.4739L-0.707069 18.2411L0.707145 19.6553L7.47433 12.8881L6.06012 11.4739ZM-0.707069 19.6553L4.70669 25.069L6.12091 23.6548L0.707145 18.2411L-0.707069 19.6553ZM6.12091 25.069L12.8881 18.3019L11.4739 16.8876L4.70669 23.6548L6.12091 25.069ZM19.6553 23.6548L12.8881 16.8876L11.4739 18.3019L18.2411 25.069L19.6553 23.6548ZM23.6548 18.2411L18.2411 23.6548L19.6553 25.069L25.069 19.6553L23.6548 18.2411ZM16.8876 12.8881L23.6548 19.6553L25.069 18.2411L18.3019 11.4739L16.8876 12.8881ZM18.3019 12.8881L25.0691 6.12087L23.6549 4.70666L16.8876 11.4739L18.3019 12.8881ZM25.0691 4.70666L19.6553 -0.707107L18.2411 0.707107L23.6549 6.12087L25.0691 4.70666ZM18.2411 -0.707107L11.4739 6.06012L12.8881 7.47433L19.6553 0.707107L18.2411 -0.707107ZM4.70666 0.707107L11.4739 7.47433L12.8881 6.06012L6.12087 -0.707107L4.70666 0.707107Z" fill="black" mask="url(#path-2-inside-1)"/>
</svg>
