<svg width="28" height="49" viewBox="0 0 28 49" fill="none" xmlns="http://www.w3.org/2000/svg">
<path d="M26.48 32.708H22.376V38H16.688V32.708H3.116V28.784L14.996 12.8H21.116L10.1 27.956H16.868V23.24H22.376V27.956H26.48V32.708Z" fill="white"/>
<path d="M26.48 32.708V33.708H27.48V32.708H26.48ZM22.376 32.708V31.708H21.376V32.708H22.376ZM22.376 38V39H23.376V38H22.376ZM16.688 38H15.688V39H16.688V38ZM16.688 32.708H17.688V31.708H16.688V32.708ZM3.116 32.708H2.116V33.708H3.116V32.708ZM3.116 28.784L2.3134 28.1875L2.116 28.4531V28.784H3.116ZM14.996 12.8V11.8H14.4933L14.1934 12.2035L14.996 12.8ZM21.116 12.8L21.9249 13.3879L23.0791 11.8H21.116V12.8ZM10.1 27.956L9.2911 27.3681L8.13692 28.956H10.1V27.956ZM16.868 27.956V28.956H17.868V27.956H16.868ZM16.868 23.24V22.24H15.868V23.24H16.868ZM22.376 23.24H23.376V22.24H22.376V23.24ZM22.376 27.956H21.376V28.956H22.376V27.956ZM26.48 27.956H27.48V26.956H26.48V27.956ZM26.48 31.708H22.376V33.708H26.48V31.708ZM21.376 32.708V38H23.376V32.708H21.376ZM22.376 37H16.688V39H22.376V37ZM17.688 38V32.708H15.688V38H17.688ZM16.688 31.708H3.116V33.708H16.688V31.708ZM4.116 32.708V28.784H2.116V32.708H4.116ZM3.9186 29.3805L15.7986 13.3965L14.1934 12.2035L2.3134 28.1875L3.9186 29.3805ZM14.996 13.8H21.116V11.8H14.996V13.8ZM20.3071 12.2121L9.2911 27.3681L10.9089 28.5439L21.9249 13.3879L20.3071 12.2121ZM10.1 28.956H16.868V26.956H10.1V28.956ZM17.868 27.956V23.24H15.868V27.956H17.868ZM16.868 24.24H22.376V22.24H16.868V24.24ZM21.376 23.24V27.956H23.376V23.24H21.376ZM22.376 28.956H26.48V26.956H22.376V28.956ZM25.48 27.956V32.708H27.48V27.956H25.48Z" fill="#EC3332"/>
<path d="M24.48 30.708H20.376V36H14.688V30.708H1.116V26.784L12.996 10.8H19.116L8.1 25.956H14.868V21.24H20.376V25.956H24.48V30.708Z" fill="#EC3332"/>
</svg>
