<svg width="62" height="52" viewBox="0 0 62 52" fill="none" xmlns="http://www.w3.org/2000/svg">
<path d="M51.3543 27.3225L38.8243 27.3225L38.8243 5.645L60.5018 5.645L60.5018 28.3225C60.5018 40.5124 50.8858 50.4551 38.8243 50.9783L38.8243 42.8186C46.3821 42.3048 52.3543 36.0105 52.3543 28.3225L52.3543 27.3225L51.3543 27.3225ZM18.53 28.3225L18.53 27.3225L17.53 27.3225L4.99999 27.3225L4.99999 5.645L26.6775 5.645L26.6775 28.3225C26.6775 40.5124 17.0609 50.4551 4.99998 50.9783L4.99999 42.8186C12.5578 42.3048 18.53 36.0105 18.53 28.3225Z" stroke="#EC3332" stroke-width="2"/>
<path d="M47.6034 23.3149L35.0734 23.3149L35.0734 1.63743L56.7509 1.63744L56.7509 24.3149C56.7509 36.5048 47.1349 46.4475 35.0734 46.9708L35.0734 38.8111C42.6312 38.2972 48.6034 32.003 48.6034 24.3149L48.6034 23.3149L47.6034 23.3149ZM14.7791 24.3149L14.7791 23.3149L13.7791 23.3149L1.24907 23.3149L1.24907 1.63743L22.9266 1.63743L22.9266 24.3149C22.9266 36.5048 13.31 46.4475 1.24907 46.9708L1.24907 38.811C8.80684 38.2972 14.7791 32.003 14.7791 24.3149Z" fill="#EC3332" stroke="#EC3332" stroke-width="2"/>
</svg>
