<svg width="881" height="207" viewBox="0 0 881 207" fill="none" xmlns="http://www.w3.org/2000/svg">
<path d="M126.767 7.15345H124.614V9.306V73.8966H70.4499V9.306V7.15345H68.2973H5H2.84745V9.306V197.694V199.847H5H68.2973H70.4499V197.694V130.412H124.614V197.694V199.847H126.767H190.064H192.217V197.694V9.306V7.15345H190.064H126.767ZM683.935 199.847H686.094L686.088 197.688L685.551 9.29987L685.545 7.15345H683.399H631.366H630.14L629.515 8.20787L571.799 105.512L512.511 8.18614L511.882 7.15345H510.672H458.64H456.487V9.306V197.694V199.847H458.64H516.305H518.457V197.694V122.378L555.242 181.871L555.872 182.892H557.072H584.966H586.194L586.819 181.835L623.63 119.625L624.118 197.707L624.131 199.847H626.27H683.935ZM876 147.637H784.279V127.183H861.517H863.669V125.03V79.2787V77.1261H861.517H784.279V59.3629H872.513H874.666V57.2104V9.306V7.15345H872.513H719.902H717.75V9.306V197.694V199.847H719.902H876H878.153V197.694V149.79V147.637H876ZM324.359 204.153C386.546 204.153 432.454 161.891 432.454 103.5C432.454 45.1088 386.546 2.84745 324.359 2.84745C262.172 2.84745 216.264 45.1088 216.264 103.5C216.264 161.891 262.172 204.153 324.359 204.153ZM324.359 148.444C313.256 148.444 303.307 144.228 296.124 136.576C288.94 128.922 284.403 117.7 284.403 103.5C284.403 89.2997 288.94 78.0776 296.124 70.4242C303.307 62.7724 313.256 58.5556 324.359 58.5556C335.463 58.5556 345.412 62.7724 352.595 70.4242C359.779 78.0776 364.316 89.2997 364.316 103.5C364.316 117.7 359.779 128.922 352.595 136.576C345.412 144.228 335.463 148.444 324.359 148.444Z" fill="black" stroke="black" stroke-width="4.3051"/>
</svg>
