<svg width="78" height="66" viewBox="0 0 78 66" fill="none" xmlns="http://www.w3.org/2000/svg">
<rect x="4.98004" y="4.91113" width="72.02" height="60.0889" fill="#EC3332" stroke="#EC3332" stroke-width="2"/>
<rect x="1" y="1" width="72.02" height="60.0889" fill="white" stroke="#EC3332" stroke-width="2"/>
<path d="M51.2833 32.7811C52.9583 32.7811 54.4147 34.1818 54.4147 35.9511C54.4147 37.7205 53.0311 39.1212 51.2833 39.1212C49.5356 39.1212 48.1519 37.7205 48.1519 35.9511C48.1519 34.1818 49.5356 32.7811 51.2833 32.7811ZM36.9371 14.8665C38.612 14.8665 40.0685 16.2673 40.0685 18.0366C40.0685 19.7322 38.6849 21.2067 36.9371 21.2067C35.1893 21.2067 33.8057 19.8059 33.8057 18.0366C33.8785 16.2673 35.2622 14.8665 36.9371 14.8665ZM22.7365 32.7811C24.4115 32.7811 25.8679 34.1818 25.8679 35.9511C25.8679 37.7205 24.4843 39.1212 22.7365 39.1212C21.0616 39.1212 19.6051 37.7205 19.6051 35.9511C19.6051 34.1818 21.0616 32.7811 22.7365 32.7811ZM42.5445 39.711H37.0099H31.4753V37.3519H35.8447V31.0855H38.1751V37.3519H42.5445V39.711Z" fill="#EC3332"/>
<rect x="17.2708" y="40.1471" width="10.8472" height="3.45447" fill="#EC3332"/>
<rect x="46.1966" y="40.1471" width="10.8472" height="3.45447" fill="#EC3332"/>
<rect x="31.7336" y="22.8745" width="10.8472" height="3.45447" fill="#EC3332"/>
</svg>
