<svg width="17" height="49" viewBox="0 0 17 49" fill="none" xmlns="http://www.w3.org/2000/svg">
<path d="M13.124 12.8V38H7.292V17.48H2.252V12.8H13.124Z" fill="white"/>
<path d="M13.124 12.8H14.124V11.8H13.124V12.8ZM13.124 38V39H14.124V38H13.124ZM7.292 38H6.292V39H7.292V38ZM7.292 17.48H8.292V16.48H7.292V17.48ZM2.252 17.48H1.252V18.48H2.252V17.48ZM2.252 12.8V11.8H1.252V12.8H2.252ZM12.124 12.8V38H14.124V12.8H12.124ZM13.124 37H7.292V39H13.124V37ZM8.292 38V17.48H6.292V38H8.292ZM7.292 16.48H2.252V18.48H7.292V16.48ZM3.252 17.48V12.8H1.252V17.48H3.252ZM2.252 13.8H13.124V11.8H2.252V13.8Z" fill="#EC3332"/>
<path d="M11.124 10.8V36H5.292V15.48H0.252V10.8H11.124Z" fill="#EC3332"/>
</svg>
