<svg width="16" height="22" viewBox="0 0 16 22" fill="none" xmlns="http://www.w3.org/2000/svg">
<path d="M0 7.66778C0 3.4426 3.56415 0.0139971 7.97775 0C7.9866 0.000461434 7.99555 0.000461434 8.0044 0C12.4305 0 16 3.43353 16 7.66778C16 9.05584 15.61 10.3602 14.9375 11.4841C14.9355 11.4875 14.9306 11.4898 14.9286 11.4929C14.9272 11.4957 14.93 11.4988 14.9286 11.5017C14.9254 11.5074 14.9225 11.5133 14.9198 11.5192L8.04874 21.9422L1.11567 11.5901C1.11295 11.5841 1.10999 11.5782 1.10682 11.5725L1.09796 11.5459C1.09524 11.5399 1.09228 11.534 1.08911 11.5283C0.397272 10.3926 0 9.07715 0 7.66778Z" fill="#EC3332"/>
<circle cx="8.00001" cy="7.72014" r="3.55556" fill="white"/>
</svg>
