<svg width="51" height="52" viewBox="0 0 51 52" fill="none" xmlns="http://www.w3.org/2000/svg">
<path d="M19.6084 16.3654L20.1293 15.5117L18.6084 16.3654H19.6084ZM19.6084 37.0819H18.6084L20.1417 37.9278L19.6084 37.0819ZM36.3061 26.5538L36.8394 27.3997L36.827 25.7002L36.3061 26.5538ZM18.6084 16.3654V37.0819H20.6084V16.3654H18.6084ZM20.1417 37.9278L36.8394 27.3997L35.7728 25.7079L19.0751 36.236L20.1417 37.9278ZM36.827 25.7002L20.1293 15.5117L19.0875 17.219L35.7852 27.4075L36.827 25.7002Z" fill="white"/>
<path d="M50 26.3896C50 39.8628 39.084 50.784 25.6195 50.784C12.1551 50.784 1.23901 39.8628 1.23901 26.3896C1.23901 12.9164 12.1551 1.99512 25.6195 1.99512C39.084 1.99512 50 12.9164 50 26.3896Z" stroke="white" stroke-width="2"/>
</svg>
