<svg width="1084" height="207" viewBox="0 0 1084 207" fill="none" xmlns="http://www.w3.org/2000/svg">
<path d="M115.583 198.897L116.223 199.847H117.369H184.951H189.011L186.732 196.486L148.653 140.336C170.582 128.206 183.08 107.462 183.08 80.3552C183.08 57.9628 174.517 39.5749 159.137 26.8241C143.802 14.1097 121.882 7.15345 95.3775 7.15345H5H2.84745V9.306V197.694V199.847H5H68.2911H70.4436V197.694V152.48H84.3095L115.583 198.897ZM208.039 197.694V199.847H210.191H302.714C334.488 199.847 361.513 190.783 380.628 174.12C399.775 157.428 410.799 133.268 410.799 103.5C410.799 73.7319 399.775 49.5719 380.628 32.8803C361.513 16.2169 334.488 7.15345 302.714 7.15345H210.191H208.039V9.306V197.694ZM620.122 165.629L621.33 164.047L619.847 162.719L579.888 126.925L578.178 125.393L576.759 127.199C566.057 140.821 553.488 148.444 537.42 148.444C524.798 148.444 514.395 144.063 507.139 136.37C499.873 128.667 495.591 117.456 495.591 103.5C495.591 89.5436 499.873 78.3332 507.139 70.6298C514.395 62.9372 524.798 58.5556 537.42 58.5556C553.488 58.5556 566.057 66.1794 576.759 79.8012L578.178 81.6067L579.888 80.0747L619.847 44.2809L621.33 42.9527L620.122 41.3708C601.144 16.531 571.498 2.84745 534.202 2.84745C472.811 2.84745 427.458 44.3148 427.458 103.5C427.458 162.685 472.811 204.153 534.202 204.153C571.498 204.153 601.144 190.469 620.122 165.629ZM639.896 197.694V199.847H642.049H790.086H792.238V197.694V148.444V146.291H790.086H707.492V9.306V7.15345H705.34H642.049H639.896V9.306V197.694ZM923.515 198.897L924.155 199.847H925.3H992.882H996.943L994.664 196.486L956.584 140.336C978.513 128.206 991.012 107.462 991.012 80.3552C991.012 57.9627 982.448 39.5749 967.069 26.8241C951.733 14.1097 929.813 7.15345 903.309 7.15345H812.931H810.779V9.306V197.694V199.847H812.931H876.223H878.375V197.694V152.48H892.241L923.515 198.897ZM114.948 80.3552C114.948 86.7743 113.018 91.6385 109.331 94.9307C105.604 98.258 99.7592 100.271 91.3548 100.271H70.4436V60.4394H91.3548C99.7592 60.4394 105.604 62.4524 109.331 65.7797C113.018 69.0719 114.948 73.9361 114.948 80.3552ZM275.635 146.022V60.9777H300.032C312.883 60.9777 323.499 64.8147 330.89 71.9161C338.268 79.0041 342.666 89.5693 342.666 103.5C342.666 117.431 338.268 127.996 330.89 135.084C323.499 142.185 312.883 146.022 300.032 146.022H275.635ZM922.879 80.3552C922.879 86.7743 920.95 91.6385 917.262 94.9307C913.536 98.258 907.691 100.271 899.286 100.271H878.375V60.4394H899.286C907.691 60.4394 913.536 62.4524 917.262 65.7797C920.95 69.0719 922.879 73.9361 922.879 80.3552ZM1043.6 202.538C1064.85 202.538 1081.15 187.088 1081.15 165.399C1081.15 154.483 1077.11 145.295 1070.33 138.844C1063.55 132.403 1054.15 128.798 1043.6 128.798C1033.05 128.798 1023.65 132.403 1016.87 138.844C1010.09 145.295 1006.05 154.483 1006.05 165.399C1006.05 187.088 1022.34 202.538 1043.6 202.538Z" fill="black" stroke="black" stroke-width="4.3051"/>
</svg>
