<svg width="1074" height="197" viewBox="0 0 1074 197" fill="none" xmlns="http://www.w3.org/2000/svg">
<path d="M80.4548 145.328H63.2911V192.694H0V4.306H90.3775C107.72 4.306 122.828 7.17668 135.7 12.918C148.573 18.6594 158.496 26.9126 165.469 37.6776C172.441 48.4426 175.928 61.0018 175.928 75.3552C175.928 88.8115 172.888 100.563 166.81 110.611C160.731 120.658 151.97 128.642 140.528 134.563L179.951 192.694H112.369L80.4548 145.328ZM112.1 75.3552C112.1 68.3579 109.955 62.9754 105.664 59.2077C101.373 55.2605 94.9366 53.2869 86.3548 53.2869H63.2911V97.4235H86.3548C94.9366 97.4235 101.373 95.5396 105.664 91.7719C109.955 87.8247 112.1 82.3525 112.1 75.3552Z" fill="white"/>
<path d="M205.191 4.306H297.714C318.632 4.306 337.048 8.16348 352.96 15.8784C369.051 23.4139 381.476 34.2687 390.237 48.4426C399.177 62.6166 403.646 79.3024 403.646 98.5C403.646 117.698 399.177 134.383 390.237 148.557C381.476 162.731 369.051 173.676 352.96 181.391C337.048 188.926 318.632 192.694 297.714 192.694H205.191V4.306ZM295.032 143.175C308.62 143.175 319.437 139.317 327.482 131.602C335.707 123.708 339.819 112.674 339.819 98.5C339.819 84.326 335.707 73.3816 327.482 65.6667C319.437 57.7723 308.62 53.8251 295.032 53.8251H268.482V143.175H295.032Z" fill="white"/>
<path d="M529.202 197C509.356 197 491.477 192.873 475.565 184.62C459.653 176.188 447.138 164.525 438.02 149.634C429.08 134.563 424.611 117.518 424.611 98.5C424.611 79.4818 429.08 62.5269 438.02 47.6352C447.138 32.5642 459.653 20.9021 475.565 12.6489C491.477 4.2163 509.356 0 529.202 0C547.438 0 563.708 3.22951 578.011 9.68853C592.314 16.1475 604.114 25.4772 613.411 37.6776L573.452 73.4713C561.831 58.7591 548.153 51.403 532.42 51.403C519.19 51.403 508.552 55.709 500.506 64.321C492.461 72.7536 488.438 84.1466 488.438 98.5C488.438 112.853 492.461 124.336 500.506 132.948C508.552 141.381 519.19 145.597 532.42 145.597C548.153 145.597 561.831 138.241 573.452 123.529L613.411 159.322C604.114 171.523 592.314 180.852 578.011 187.311C563.708 193.77 547.438 197 529.202 197Z" fill="white"/>
<path d="M637.049 4.306H700.34V143.444H785.086V192.694H637.049V4.306Z" fill="white"/>
<path d="M888.386 145.328H871.223V192.694H807.931V4.306H898.309C915.651 4.306 930.759 7.17668 943.632 12.918C956.505 18.6594 966.427 26.9126 973.4 37.6776C980.373 48.4426 983.859 61.0018 983.859 75.3552C983.859 88.8115 980.82 100.563 974.741 110.611C968.662 120.658 959.902 128.642 948.459 134.563L987.882 192.694H920.3L888.386 145.328ZM920.032 75.3552C920.032 68.3579 917.886 62.9754 913.595 59.2077C909.305 55.2605 902.868 53.2869 894.286 53.2869H871.223V97.4235H894.286C902.868 97.4235 909.305 95.5396 913.595 91.7719C917.886 87.8247 920.032 82.3525 920.032 75.3552Z" fill="white"/>
<path d="M1038.6 195.385C1028.41 195.385 1019.92 192.156 1013.12 185.697C1006.51 179.058 1003.2 170.626 1003.2 160.399C1003.2 150.172 1006.51 141.919 1013.12 135.639C1019.92 129.18 1028.41 125.951 1038.6 125.951C1048.79 125.951 1057.19 129.18 1063.81 135.639C1070.6 141.919 1074 150.172 1074 160.399C1074 170.626 1070.6 179.058 1063.81 185.697C1057.19 192.156 1048.79 195.385 1038.6 195.385Z" fill="white"/>
</svg>
