<svg width="25" height="49" viewBox="0 0 25 49" fill="none" xmlns="http://www.w3.org/2000/svg">
<path d="M16.176 23.06C18.384 23.42 20.076 24.248 21.252 25.544C22.428 26.816 23.016 28.4 23.016 30.296C23.016 31.76 22.632 33.116 21.864 34.364C21.096 35.588 19.92 36.572 18.336 37.316C16.776 38.06 14.856 38.432 12.576 38.432C10.8 38.432 9.048 38.204 7.32 37.748C5.616 37.268 4.164 36.596 2.964 35.732L5.232 31.268C6.192 31.988 7.296 32.552 8.544 32.96C9.816 33.344 11.112 33.536 12.432 33.536C13.896 33.536 15.048 33.26 15.888 32.708C16.728 32.132 17.148 31.328 17.148 30.296C17.148 28.232 15.576 27.2 12.432 27.2H9.768V23.348L14.952 17.48H4.224V12.8H21.864V16.58L16.176 23.06Z" fill="white"/>
<path d="M16.176 23.06L15.4245 22.4003L14.234 23.7566L16.0151 24.047L16.176 23.06ZM21.252 25.544L20.5114 26.216L20.5177 26.2229L21.252 25.544ZM21.864 34.364L22.7111 34.8955L22.7157 34.8881L21.864 34.364ZM18.336 37.316L17.9109 36.4109L17.9055 36.4134L18.336 37.316ZM7.32 37.748L7.04886 38.7105L7.05684 38.7128L7.06485 38.7149L7.32 37.748ZM2.964 35.732L2.07247 35.279L1.68438 36.0429L2.3797 36.5435L2.964 35.732ZM5.232 31.268L5.832 30.468L4.87967 29.7538L4.34047 30.815L5.232 31.268ZM8.544 32.96L8.23326 33.9105L8.24409 33.914L8.255 33.9173L8.544 32.96ZM15.888 32.708L16.4372 33.5437L16.4454 33.5383L16.4535 33.5327L15.888 32.708ZM9.768 27.2H8.768V28.2H9.768V27.2ZM9.768 23.348L9.01857 22.6859L8.768 22.9695V23.348H9.768ZM14.952 17.48L15.7014 18.1421L17.1698 16.48H14.952V17.48ZM4.224 17.48H3.224V18.48H4.224V17.48ZM4.224 12.8V11.8H3.224V12.8H4.224ZM21.864 12.8H22.864V11.8H21.864V12.8ZM21.864 16.58L22.6155 17.2397L22.864 16.9566V16.58H21.864ZM16.0151 24.047C18.0629 24.3808 19.5255 25.1294 20.5114 26.216L21.9926 24.872C20.6265 23.3666 18.7051 22.4592 16.3369 22.073L16.0151 24.047ZM20.5177 26.2229C21.5061 27.2919 22.016 28.6258 22.016 30.296H24.016C24.016 28.1742 23.3499 26.3401 21.9863 24.8651L20.5177 26.2229ZM22.016 30.296C22.016 31.5748 21.6835 32.7494 21.0123 33.8399L22.7157 34.8881C23.5806 33.4826 24.016 31.9452 24.016 30.296H22.016ZM21.0169 33.8325C20.3706 34.8627 19.3582 35.731 17.9109 36.4109L18.7611 38.2211C20.4818 37.413 21.8214 36.3133 22.7111 34.8955L21.0169 33.8325ZM17.9055 36.4134C16.5157 37.0762 14.7525 37.432 12.576 37.432V39.432C14.9595 39.432 17.0363 39.0438 18.7665 38.2186L17.9055 36.4134ZM12.576 37.432C10.8867 37.432 9.22041 37.2153 7.57515 36.7811L7.06485 38.7149C8.87559 39.1927 10.7133 39.432 12.576 39.432V37.432ZM7.59114 36.7855C5.97797 36.331 4.63691 35.7043 3.5483 34.9205L2.3797 36.5435C3.69109 37.4877 5.25403 38.205 7.04886 38.7105L7.59114 36.7855ZM3.85553 36.185L6.12353 31.721L4.34047 30.815L2.07247 35.279L3.85553 36.185ZM4.632 32.068C5.68739 32.8595 6.89102 33.4717 8.23326 33.9105L8.85474 32.0095C7.70098 31.6323 6.69661 31.1165 5.832 30.468L4.632 32.068ZM8.255 33.9173C9.6201 34.3294 11.0134 34.536 12.432 34.536V32.536C11.2106 32.536 10.0119 32.3586 8.833 32.0027L8.255 33.9173ZM12.432 34.536C14.0067 34.536 15.3755 34.2414 16.4372 33.5437L15.3388 31.8723C14.7205 32.2786 13.7853 32.536 12.432 32.536V34.536ZM16.4535 33.5327C17.5698 32.7673 18.148 31.6525 18.148 30.296H16.148C16.148 31.0035 15.8862 31.4967 15.3225 31.8833L16.4535 33.5327ZM18.148 30.296C18.148 28.9661 17.6165 27.8593 16.5178 27.138C15.4925 26.465 14.0816 26.2 12.432 26.2V28.2C13.9264 28.2 14.8735 28.451 15.4202 28.81C15.8935 29.1207 16.148 29.5619 16.148 30.296H18.148ZM12.432 26.2H9.768V28.2H12.432V26.2ZM10.768 27.2V23.348H8.768V27.2H10.768ZM10.5174 24.0101L15.7014 18.1421L14.2026 16.8179L9.01857 22.6859L10.5174 24.0101ZM14.952 16.48H4.224V18.48H14.952V16.48ZM5.224 17.48V12.8H3.224V17.48H5.224ZM4.224 13.8H21.864V11.8H4.224V13.8ZM20.864 12.8V16.58H22.864V12.8H20.864ZM21.1125 15.9203L15.4245 22.4003L16.9275 23.7197L22.6155 17.2397L21.1125 15.9203Z" fill="#EC3332"/>
<path d="M14.176 21.06C16.384 21.42 18.076 22.248 19.252 23.544C20.428 24.816 21.016 26.4 21.016 28.296C21.016 29.76 20.632 31.116 19.864 32.364C19.096 33.588 17.92 34.572 16.336 35.316C14.776 36.06 12.856 36.432 10.576 36.432C8.8 36.432 7.048 36.204 5.32 35.748C3.616 35.268 2.164 34.596 0.964 33.732L3.232 29.268C4.192 29.988 5.296 30.552 6.544 30.96C7.816 31.344 9.112 31.536 10.432 31.536C11.896 31.536 13.048 31.26 13.888 30.708C14.728 30.132 15.148 29.328 15.148 28.296C15.148 26.232 13.576 25.2 10.432 25.2H7.768V21.348L12.952 15.48H2.224V10.8H19.864V14.58L14.176 21.06Z" fill="#EC3332"/>
</svg>
