<svg width="24" height="49" viewBox="0 0 24 49" fill="none" xmlns="http://www.w3.org/2000/svg">
<path d="M22.232 33.248V38H3.188V34.22L12.908 25.04C13.94 24.056 14.636 23.216 14.996 22.52C15.356 21.8 15.536 21.092 15.536 20.396C15.536 19.388 15.188 18.62 14.492 18.092C13.82 17.54 12.824 17.264 11.504 17.264C10.4 17.264 9.404 17.48 8.516 17.912C7.628 18.32 6.884 18.944 6.284 19.784L2.036 17.048C3.02 15.584 4.376 14.444 6.104 13.628C7.832 12.788 9.812 12.368 12.044 12.368C13.916 12.368 15.548 12.68 16.94 13.304C18.356 13.904 19.448 14.768 20.216 15.896C21.008 17 21.404 18.308 21.404 19.82C21.404 21.188 21.116 22.472 20.54 23.672C19.964 24.872 18.848 26.24 17.192 27.776L11.396 33.248H22.232Z" fill="white"/>
<path d="M22.232 33.248H23.232V32.248H22.232V33.248ZM22.232 38V39H23.232V38H22.232ZM3.188 38H2.188V39H3.188V38ZM3.188 34.22L2.50138 33.493L2.188 33.789V34.22H3.188ZM12.908 25.04L13.5946 25.767L13.5981 25.7637L12.908 25.04ZM14.996 22.52L15.8843 22.9795L15.8904 22.9672L14.996 22.52ZM14.492 18.092L13.8573 18.8647L13.8722 18.877L13.8876 18.8887L14.492 18.092ZM8.516 17.912L8.9335 18.8207L8.94354 18.8161L8.95347 18.8112L8.516 17.912ZM6.284 19.784L5.74252 20.6247L6.54378 21.1408L7.09773 20.3652L6.284 19.784ZM2.036 17.048L1.20605 16.4902L0.63718 17.3365L1.49452 17.8887L2.036 17.048ZM6.104 13.628L6.53103 14.5323L6.54119 14.5274L6.104 13.628ZM16.94 13.304L16.5309 14.2165L16.5404 14.2207L16.5499 14.2247L16.94 13.304ZM20.216 15.896L19.3894 16.4588L19.3963 16.4689L19.4035 16.4789L20.216 15.896ZM20.54 23.672L21.4415 24.1047L20.54 23.672ZM17.192 27.776L16.5119 27.0428L16.5055 27.0489L17.192 27.776ZM11.396 33.248L10.7095 32.5209L8.88011 34.248H11.396V33.248ZM21.232 33.248V38H23.232V33.248H21.232ZM22.232 37H3.188V39H22.232V37ZM4.188 38V34.22H2.188V38H4.188ZM3.87462 34.947L13.5946 25.767L12.2214 24.313L2.50138 33.493L3.87462 34.947ZM13.5981 25.7637C14.6558 24.7552 15.4475 23.8238 15.8842 22.9794L14.1078 22.0606C13.8245 22.6082 13.2242 23.3568 12.2179 24.3163L13.5981 25.7637ZM15.8904 22.9672C16.309 22.1301 16.536 21.2699 16.536 20.396H14.536C14.536 20.9141 14.403 21.4699 14.1016 22.0728L15.8904 22.9672ZM16.536 20.396C16.536 19.1298 16.0821 18.0431 15.0964 17.2953L13.8876 18.8887C14.2939 19.1969 14.536 19.6462 14.536 20.396H16.536ZM15.1267 17.3193C14.2037 16.5611 12.9408 16.264 11.504 16.264V18.264C12.7072 18.264 13.4363 18.5189 13.8573 18.8647L15.1267 17.3193ZM11.504 16.264C10.2665 16.264 9.11818 16.507 8.07853 17.0128L8.95347 18.8112C9.68982 18.453 10.5335 18.264 11.504 18.264V16.264ZM8.0985 17.0033C7.04314 17.4882 6.16564 18.2292 5.47027 19.2028L7.09773 20.3652C7.60236 19.6588 8.21286 19.1518 8.9335 18.8207L8.0985 17.0033ZM6.82548 18.9433L2.57748 16.2073L1.49452 17.8887L5.74252 20.6247L6.82548 18.9433ZM2.86595 17.6058C3.741 16.3039 4.95204 15.2779 6.53101 14.5322L5.67699 12.7238C3.79996 13.6101 2.299 14.8641 1.20605 16.4902L2.86595 17.6058ZM6.54119 14.5274C8.11257 13.7635 9.93904 13.368 12.044 13.368V11.368C9.68496 11.368 7.55143 11.8125 5.66681 12.7286L6.54119 14.5274ZM12.044 13.368C13.8063 13.368 15.2934 13.6617 16.5309 14.2165L17.3491 12.3915C15.8026 11.6983 14.0257 11.368 12.044 11.368V13.368ZM16.5499 14.2247C17.8122 14.7596 18.7428 15.5091 19.3894 16.4588L21.0426 15.3332C20.1532 14.0269 18.8999 13.0484 17.3302 12.3832L16.5499 14.2247ZM19.4035 16.4789C20.0599 17.394 20.404 18.4924 20.404 19.82H22.404C22.404 18.1236 21.9561 16.606 21.0285 15.3131L19.4035 16.4789ZM20.404 19.82C20.404 21.0425 20.1478 22.1781 19.6385 23.2393L21.4415 24.1047C22.0842 22.7659 22.404 21.3335 22.404 19.82H20.404ZM19.6385 23.2393C19.1419 24.2739 18.131 25.5411 16.512 27.0428L17.872 28.5092C19.565 26.9389 20.7861 25.4701 21.4415 24.1047L19.6385 23.2393ZM16.5055 27.0489L10.7095 32.5209L12.0825 33.9751L17.8785 28.5031L16.5055 27.0489ZM11.396 34.248H22.232V32.248H11.396V34.248Z" fill="#EC3332"/>
<path d="M20.232 31.248V36H1.188V32.22L10.908 23.04C11.94 22.056 12.636 21.216 12.996 20.52C13.356 19.8 13.536 19.092 13.536 18.396C13.536 17.388 13.188 16.62 12.492 16.092C11.82 15.54 10.824 15.264 9.504 15.264C8.4 15.264 7.404 15.48 6.516 15.912C5.628 16.32 4.884 16.944 4.284 17.784L0.036 15.048C1.02 13.584 2.376 12.444 4.104 11.628C5.832 10.788 7.812 10.368 10.044 10.368C11.916 10.368 13.548 10.68 14.94 11.304C16.356 11.904 17.448 12.768 18.216 13.896C19.008 15 19.404 16.308 19.404 17.82C19.404 19.188 19.116 20.472 18.54 21.672C17.964 22.872 16.848 24.24 15.192 25.776L9.396 31.248H20.232Z" fill="#EC3332"/>
</svg>
